<svg xmlns="http://www.w3.org/2000/svg" width="1600" height="600" viewBox="0 0 1600 600" preserveAspectRatio="xMidYMid slice">
  <defs>
    <linearGradient id="bg" x1="0" y1="0" x2="1" y2="1">
      <stop offset="0" stop-color="#0d3a70"/>
      <stop offset="0.55" stop-color="#14539b"/>
      <stop offset="1" stop-color="#2a86c4"/>
    </linearGradient>
  </defs>
  <rect width="1600" height="600" fill="url(#bg)"/>
  <g fill="none" stroke="#ffffff" stroke-opacity="0.10" stroke-width="2">
    <circle cx="1320" cy="300" r="260"/>
    <circle cx="1320" cy="300" r="180"/>
    <circle cx="120" cy="120" r="140"/>
  </g>
  <g stroke="#c8a45c" stroke-opacity="0.5" stroke-width="2.5" fill="none">
    <path d="M0 360 H180 V300 H340 V380 H520 V320 H700 V360 H880 V300 H1060 V370 H1240 V330 H1420 V360 H1600"/>
    <path d="M0 410 H200 V360 H380 V420 H560 V370 H740 V410 H920 V350 H1100 V415 H1280 V370 H1460 V410 H1600" stroke-opacity="0.3"/>
  </g>
  <g fill="#ffffff" fill-opacity="0.85">
    <circle cx="1380" cy="120" r="6"/><circle cx="1460" cy="180" r="4"/><circle cx="1300" cy="200" r="5"/>
  </g>
</svg>
